<svg width="60" height="96" viewBox="0 0 60 96" fill="none" xmlns="http://www.w3.org/2000/svg">
<path fill-rule="evenodd" clip-rule="evenodd" d="M48 74.9973C48 76.6544 46.6582 77.9957 45 77.9957H15C13.3418 77.9957 11.9999 76.6544 11.9999 74.9973C11.9999 73.3384 13.3418 71.9964 15 71.9964H45C46.6582 71.9964 48 73.3384 48 74.9973ZM45 80.9966H15C13.3418 80.9966 11.9999 82.3373 11.9999 83.9966C11.9999 85.6559 13.3418 86.9959 15 86.9959H45C46.6582 86.9959 48 85.6559 48 83.9966C48 82.3373 46.6582 80.9966 45 80.9966ZM24 95.9959H35.9999C39.3164 95.9959 41.9999 93.3128 41.9999 89.9963H18C18 93.3128 20.6836 95.9959 24 95.9959ZM60 29.996C60 46.3082 50.1679 48.2066 48.3222 65.9959C48.3222 67.6547 46.9804 68.9968 45.3223 68.9968H14.6778C13.0194 68.9968 11.6776 67.6547 11.6776 65.9959H11.6718C9.83208 48.2066 0 46.3082 0 29.996C0 13.4265 13.4296 -0.00415039 30 -0.00415039C46.5702 -0.00415039 60 13.4265 60 29.996ZM42.1464 20.9966C7.27148 29.2459 24.1465 50.9968 24.1465 50.9968C24.1465 38.9957 32.959 36.1832 33.1464 36.5591C26.959 42.5592 24.1465 62.9962 24.1465 62.9962H30.1465C30.1465 62.9962 30.1465 56.9957 30.1465 50.9968C47.209 51.9336 42.1464 23.0578 42.1464 20.9966Z" fill="#18CFAB"/>
</svg>
