<svg width="99" height="76" viewBox="0 0 99 76" fill="none" xmlns="http://www.w3.org/2000/svg">
<path fill-rule="evenodd" clip-rule="evenodd" d="M81.3619 5.36138H19.1883V16.5371H13.7102V-0.00390625H86.8412V30.0806H81.3619V5.36138ZM38.7969 75.9963H-0.00012207V18.9742H38.7969V75.9963ZM18.3481 71.3027C18.3481 72.3102 19.1842 73.1379 20.2168 73.1379C21.2504 73.1379 22.0905 72.3102 22.0877 71.3027C22.0877 70.294 21.2504 69.4724 20.2168 69.4724C19.1842 69.4724 18.3481 70.294 18.3481 71.3027ZM33.1905 24.4691H5.61039V66.5417H33.1884L33.1905 24.4691ZM41.2974 41.8722H70.1105V47.2383H41.2974V41.8722ZM72.9427 75.1053V32.1624H98.9999V75.1053H72.9427ZM87.179 34.5573C87.179 34.2153 86.8981 33.9406 86.55 33.9406C86.2022 33.9406 85.9194 34.2132 85.9194 34.5573C85.9194 34.8947 86.2022 35.1761 86.55 35.1761C86.8981 35.1761 87.179 34.8947 87.179 34.5573ZM90.2978 36.0005H82.8024V36.5895H90.2978V36.0005ZM84.8004 71.776C84.8004 72.589 85.476 73.2515 86.3038 73.2515C87.132 73.2515 87.8075 72.589 87.8075 71.776C87.8075 70.9623 87.132 70.3047 86.3038 70.3047C85.4717 70.3047 84.8004 70.9669 84.8004 71.776ZM77.1238 68.2287C80.4788 68.256 88.0517 68.232 94.8189 68.194V38.6991L77.1238 38.7032V68.2287ZM41.2974 49.4337H49.2272H51.3127H70.1105V57.0513H41.2974V54.1116H60.6109V52.6865H41.2974V49.4337Z" fill="white"/>
</svg>
