<svg width="58" height="97" viewBox="0 0 58 97" fill="none" xmlns="http://www.w3.org/2000/svg">
<path fill-rule="evenodd" clip-rule="evenodd" d="M15.7001 34.9758L15.711 19.1276C15.711 17.2973 16.3969 15.5851 17.6508 14.3063C19.0439 12.8998 21.0372 12.0964 23.1377 12.0964C24.7774 12.0964 26.3529 12.607 27.5745 13.5157C29.0536 14.6215 29.9751 16.2903 30.1681 18.1958C30.1681 18.2387 31.0145 26.5048 31.7754 33.9035C37.1017 30.7399 40.6921 24.8915 40.6921 18.1958C40.6921 8.14305 32.6327 -0.00415039 22.6877 -0.00415039C12.7426 -0.00415039 4.68317 8.14305 4.68317 18.1958C4.67262 25.735 9.21663 32.2129 15.7001 34.9758ZM16.4184 94.8307C16.4184 96.0204 17.3829 96.996 18.5618 96.996H50.2408C51.4197 96.996 52.3841 96.0204 52.3841 94.8307V89.8662H16.4184V94.8307ZM54.6668 51.0204C56.6603 51.6693 57.9999 53.5434 57.9999 55.6562L57.9785 72.9249C57.9785 75.493 57.2923 78.0057 55.9956 80.2048L52.3628 86.4126H16.3969C6.38715 76.1633 1.30761 65.2341 0.535781 60.543C1.83582e-05 57.3245 2.21841 55.1703 4.68317 55.1703C6.08709 55.1703 7.57689 55.8623 8.69142 57.4757C9.04504 57.9973 9.43086 58.5596 9.85963 59.1767C13.0256 63.8124 16.2752 63.9095 17.7582 63.9538L17.8113 63.9553H17.8435C17.8867 63.9553 17.9402 63.9553 17.9829 63.943H18.0044C18.5187 63.8686 18.8939 63.4344 18.8939 62.9144L18.9154 19.1157C18.9045 16.6574 21.0479 15.3365 23.127 15.3365C24.9596 15.3365 26.7386 16.3643 26.9638 18.5324C26.9638 18.5761 29.7288 45.6039 29.7394 45.6894V45.7019H29.75C30.511 45.0182 31.7754 44.6188 33.2222 44.6188C33.7583 44.6188 34.3156 44.6724 34.8834 44.7794C36.716 45.1488 48.7191 49.0583 54.6668 51.0204Z" fill="#18CFAB"/>
</svg>
