<svg width="16" height="16" viewBox="0 0 16 16" fill="none" xmlns="http://www.w3.org/2000/svg">
<path id="Forma 1" fill-rule="evenodd" clip-rule="evenodd" d="M15.5 5.99735H9.99996V0.497873C9.99996 0.221936 9.77611 -0.00275803 9.49998 -0.00275803H6.4999C6.22387 -0.00275803 5.99991 0.221936 5.99991 0.497873V5.99735H0.499994C0.223838 5.99735 7.98702e-06 6.22206 7.98702e-06 6.4984V9.49762C7.98702e-06 9.77314 0.223838 9.99742 0.499994 9.99742H5.99991V15.4977C5.99991 15.7732 6.22387 15.998 6.4999 15.998H9.49998C9.77611 15.998 9.99996 15.7732 9.99996 15.4977V9.99742H15.5C15.776 9.99742 16 9.77314 16 9.49762V6.4984C16 6.22206 15.776 5.99735 15.5 5.99735Z" fill="white"/>
</svg>
